<?xml version="1.0" encoding="UTF-8"?>
<svg id="Layer_1" xmlns="http://www.w3.org/2000/svg" version="1.1" viewBox="0 0 520.9 106.9">
  <!-- Generator: Adobe Illustrator 29.1.0, SVG Export Plug-In . SVG Version: 2.1.0 Build 142)  -->
  <defs>
    <style>
      .st0 {
        fill: #002a41;
      }
    </style>
  </defs>
  <g>
    <path class="st0" d="M270.1,15.8v78.1c.1.8-.4,1.5-1.2,1.6-.1,0-.3,0-.4,0h-10c-.8,0-1.4-.5-1.5-1.3,0,0,0-.2,0-.3v-44.3c0-6.3.5-15.9.9-22.1h-.4l-18,65.9c-.1,1.2-1.2,2.1-2.5,2h-9.6c-1.2.1-2.4-.8-2.5-2l-18-65.9h-.3c.5,6,1,15.9,1,22.1v44.3c0,.8-.5,1.5-1.2,1.6-.1,0-.2,0-.3,0h-9.9c-.8,0-1.5-.6-1.5-1.4,0,0,0,0,0-.1V15.8c0-1,.7-2,1.7-2.1.1,0,.2,0,.4,0h16.3c1.3-.2,2.4.7,2.7,1.9l11.1,40.2c2.5,9.4,4.2,15.9,5.7,24h.3c1.4-8.2,3-14.8,5.6-24.2l11-40c.1-1.2,1.2-2.1,2.5-2h16.1c1.1-.1,2,.7,2.1,1.7,0,.1,0,.2,0,.3Z"/>
    <path class="st0" d="M330.7,52.9v41c0,.8-.5,1.5-1.3,1.6,0,0-.2,0-.3,0h-9.8c-.8,0-1.5-.5-1.6-1.3,0-.1,0-.2,0-.3v-7.3c-3.7,6.3-10.4,10.1-17.7,10.1-11.6,0-19-7.6-19-18.7s7.4-17.7,23.4-18.8c4.2-.3,8.4-.4,12.6-.1v-5.7c0-6.9-3.8-9.7-10.2-9.7s-8.7,2.3-10.3,6.7c-.4,1.2-.9,1.5-2.1,1.1l-9.6-2.5c-1-.3-1.3-.9-1-1.8,1.8-8.7,9.7-14.8,23.7-14.8s23.1,6.8,23.1,20.4ZM317.2,75.6v-7.6c-3.8-.2-7.7,0-11.5.2-7.3.8-11.4,3.3-11.4,9.1s3.5,8.3,9.4,8.3c6.3,0,11.1-3.7,13.5-9.9Z"/>
    <path class="st0" d="M356.8,55.9v38c0,.8-.5,1.5-1.2,1.6-.1,0-.2,0-.3,0h-10.6c-1.1,0-1.8-.6-1.8-1.6v-58.7c0-.8.5-1.4,1.3-1.5,0,0,.2,0,.3,0h10.4c.8,0,1.4.4,1.5,1.2,0,0,0,.2,0,.3v7.5c4.1-6.3,11.1-10.1,18.7-10.2,11.7,0,18.1,8.5,18.1,21v40.3c0,1.1-.5,1.6-1.6,1.6h-10.6c-1.1,0-1.7-.6-1.7-1.6v-38c0-6.7-3.1-10.7-9.4-10.7-6,0-10.9,4.4-13.2,10.7Z"/>
    <path class="st0" d="M424.3,20.1v14.1h12.4c.9,0,1.4.6,1.4,1.8v8.1c0,1.1-.6,1.6-1.4,1.6h-12.4v30.9c0,4.5,2.5,6.7,7.5,6.7h4.7c.8-.1,1.5.4,1.6,1.2,0,.1,0,.3,0,.4v9c.1.8-.4,1.5-1.2,1.6-.1,0-.3,0-.4,0h-6.9c-12.5,0-18.8-6.7-18.8-17v-33h-7.7c-.7.1-1.4-.4-1.6-1.1,0-.1,0-.3,0-.4v-8.1c0-1.1.6-1.8,1.6-1.8h7.8v-14.1c0-.8.5-1.5,1.4-1.6,0,0,.1,0,.2,0h10.3c.8-.1,1.5.4,1.6,1.2,0,.2,0,.3,0,.5Z"/>
    <path class="st0" d="M458.9,68.9v3.5c0,7.9,4.1,12.8,13,13,8.3,0,10.8-3.3,13-7.4.9-1.4,1.5-1.7,2.9-1l7.1,3.5c1.6.8,1.7,1.7,1,3-3.7,8.2-12.4,13.1-24,13.1-17.1,0-26.1-10.2-26.1-24.5v-15.2c0-14,8.7-24.5,25.9-24.5s24.9,10.6,24.9,24.3v9.4c0,1.8-.7,2.7-2.8,2.7h-34.8ZM458.9,56.5v3.2h24.7v-3.2c0-7.6-4.2-12.6-12.4-12.6s-12.4,5-12.4,12.6h0Z"/>
    <path class="st0" d="M520.9,11.8v82.1c0,.8-.5,1.5-1.3,1.6,0,0-.2,0-.3,0h-10.6c-1.1,0-1.8-.6-1.8-1.6V11.8c0-1,.6-1.6,1.8-1.6h10.6c.8,0,1.5.5,1.6,1.3,0,0,0,.2,0,.3Z"/>
  </g>
  <g>
    <path class="st0" d="M40.3,30.6c-2.5,0-4.9,1.3-6.2,3.5L1.8,87.6c-3.6,6-1.7,13.8,4.3,17.4,2,1.2,4.2,1.8,6.5,1.8,10.3,0,12.6-3.7,41.6-49.5l3.3-5.2c-6.5-10.4-11-18.1-11.1-18.2-1.3-2.1-3.6-3.4-6.2-3.4Z"/>
    <path class="st0" d="M24.6,106.9h114.1c10.1,0,18.3-8.2,18.3-18.2,0-3.3-.9-6.6-2.6-9.5L109.7,5.2c-3-5-9.6-6.7-14.7-3.6-1.5.9-2.7,2.1-3.6,3.6l-29.9,48.1-4,6.2c-18.5,29.3-26.5,42-32.9,47.4Z"/>
  </g>
</svg>
