<svg width="360" height="244" viewBox="0 0 360 244" fill="none" xmlns="http://www.w3.org/2000/svg">
<path d="M251.066 11.3592C248.974 7.89332 246.02 5.02625 242.492 3.03603C238.964 1.04582 234.98 0 230.928 0C226.876 0 222.893 1.04582 219.365 3.03603C215.836 5.02625 212.883 7.89332 210.791 11.3592L141.709 122.121L132.618 136.487C92.0044 200.665 73.2047 230.409 58.7319 244H318.993C326.257 244.002 333.391 242.077 339.666 238.421C345.94 234.765 351.128 229.51 354.701 223.193C358.273 216.876 360.1 209.724 359.996 202.47C359.891 195.216 357.859 188.12 354.106 181.908L251.066 11.3592Z" fill="white"/>
<path d="M3.68574 229.723C6.11374 234.075 9.66732 237.696 13.9752 240.207C18.2831 242.719 23.1872 244.028 28.1751 244C51.3017 244 56.7228 235.436 123.129 130.486L130.3 119.141C115.599 95.5655 105.254 78.0606 105.154 77.8719C103.77 75.6006 101.823 73.7243 99.5011 72.4242C97.1789 71.1241 94.5603 70.4442 91.8982 70.4502C89.2361 70.4562 86.6206 71.1479 84.3043 72.4584C81.9881 73.7689 80.0494 75.654 78.6757 77.9315L4.07367 201.41C1.47682 205.662 0.0708471 210.533 0.00260803 215.514C-0.065631 220.494 1.20636 225.402 3.68574 229.723V229.723Z" fill="white"/>
</svg>
