<svg width="364" height="252" viewBox="0 0 364 252" fill="none" xmlns="http://www.w3.org/2000/svg">
<path d="M356.058 178.17L257.678 15.4849C254.823 10.7643 250.796 6.85857 245.985 4.1458C241.175 1.43303 235.744 0.00504639 230.218 1.33507e-05C224.692 -0.00501969 219.258 1.41307 214.442 4.11707C209.627 6.82107 205.592 10.7194 202.729 15.4349L140.457 115.18C127.474 94.33 118.515 79.1455 118.385 78.9654C116.211 75.3699 113.143 72.3957 109.478 70.3312C105.813 68.2667 101.676 67.1819 97.4669 67.1819C93.2582 67.1819 89.1208 68.2667 85.4559 70.3312C81.791 72.3957 78.7228 75.3699 76.5489 78.9654L5.31719 196.747C1.97613 202.274 0.166402 208.587 0.0731329 215.04C-0.0201362 221.493 1.6064 227.856 4.78636 233.476C7.96631 239.096 12.5856 243.773 18.1716 247.028C23.7576 250.282 30.11 251.998 36.5789 252H314.282C322.926 251.998 331.414 249.705 338.879 245.356C346.343 241.007 352.516 234.758 356.765 227.248C361.015 219.738 363.189 211.237 363.064 202.614C362.94 193.99 360.522 185.555 356.058 178.17V178.17Z" fill="#1E5E82"/>
<path d="M12.2593 229.278C9.79081 224.989 8.52545 220.116 8.59606 215.17C8.66668 210.225 10.0707 205.389 12.6606 201.172L83.8923 83.3896C85.3062 81.0697 87.295 79.152 89.6671 77.8213C92.0393 76.4905 94.7149 75.7915 97.4363 75.7915C100.158 75.7915 102.833 76.4905 105.205 77.8213C107.578 79.152 109.566 81.0697 110.98 83.3896C111.091 83.5598 121.123 100.536 135.35 123.298L128.126 134.698C64.459 235.224 59.2521 243.442 36.5784 243.442C31.6237 243.476 26.7512 242.179 22.4721 239.687C18.1931 237.195 14.6654 233.6 12.2593 229.278V229.278Z" fill="#81CCEA"/>
<path d="M349.296 223.042C345.831 229.266 340.751 234.444 334.588 238.034C328.425 241.623 321.408 243.491 314.272 243.442H62.7341L63.0853 243.151L63.4665 242.821C64.0785 242.291 64.7005 241.74 65.3326 241.15L65.6938 240.799C66.3358 240.199 66.988 239.558 67.6401 238.887L67.9812 238.527C68.6634 237.836 69.3456 237.106 69.9877 236.335L70.2686 236.025C70.9709 235.234 71.6832 234.413 72.4156 233.552L72.5159 233.442C85.3276 218.308 103.115 190.181 135.441 139.233L144.099 125.56L210.043 19.909C212.137 16.4462 215.092 13.5817 218.621 11.5933C222.151 9.6049 226.135 8.56006 230.189 8.56006C234.242 8.56006 238.227 9.6049 241.756 11.5933C245.286 13.5817 248.241 16.4462 250.334 19.909L348.714 182.584C352.442 188.655 354.464 195.615 354.566 202.733C354.668 209.852 352.848 216.867 349.296 223.042Z" fill="#D86E89"/>
</svg>
